<svg xmlns="http://www.w3.org/2000/svg" viewBox="0 0 128 128" fill="none">
  <!-- 背景圆 -->
  <circle cx="64" cy="64" r="60" fill="#1e1e2e" stroke="#ea76cb" stroke-width="3"/>
  <!-- 身体 -->
  <ellipse cx="64" cy="78" rx="22" ry="30" fill="#ea76cb"/>
  <!-- 尾巴节 -->
  <path d="M50 88 Q54 98 48 104" stroke="#ea76cb" stroke-width="4" stroke-linecap="round" fill="none"/>
  <path d="M64 92 Q64 102 62 110" stroke="#ea76cb" stroke-width="4" stroke-linecap="round" fill="none"/>
  <path d="M78 88 Q74 98 80 104" stroke="#ea76cb" stroke-width="4" stroke-linecap="round" fill="none"/>
  <!-- 尾巴扇形 -->
  <path d="M44 104 Q52 112 56 104" stroke="#ea76cb" stroke-width="3" stroke-linecap="round" fill="none"/>
  <path d="M56 108 Q62 116 68 108" stroke="#ea76cb" stroke-width="3" stroke-linecap="round" fill="none"/>
  <path d="M68 104 Q76 112 80 104" stroke="#ea76cb" stroke-width="3" stroke-linecap="round" fill="none"/>
  <!-- 钳臂 -->
  <path d="M42 68 L20 52 L12 44" stroke="#ea76cb" stroke-width="4" stroke-linecap="round" fill="none"/>
  <path d="M86 68 L108 52 L116 44" stroke="#ea76cb" stroke-width="4" stroke-linecap="round" fill="none"/>
  <!-- 钳子 -->
  <path d="M12 44 Q6 36 14 30 Q22 28 20 38" stroke="#ea76cb" stroke-width="3" stroke-linecap="round" fill="none"/>
  <path d="M116 44 Q122 36 114 30 Q106 28 108 38" stroke="#ea76cb" stroke-width="3" stroke-linecap="round" fill="none"/>
  <!-- 眼睛 -->
  <circle cx="54" cy="50" r="5" fill="#f5e0dc"/>
  <circle cx="74" cy="50" r="5" fill="#f5e0dc"/>
  <circle cx="54" cy="50" r="2.5" fill="#11111b"/>
  <circle cx="74" cy="50" r="2.5" fill="#11111b"/>
  <!-- 胡须 -->
  <path d="M48 56 Q36 48 28 44" stroke="#ea76cb" stroke-width="2" stroke-linecap="round" fill="none" opacity="0.6"/>
  <path d="M52 60 Q42 52 32 50" stroke="#ea76cb" stroke-width="2" stroke-linecap="round" fill="none" opacity="0.6"/>
  <path d="M80 56 Q92 48 100 44" stroke="#ea76cb" stroke-width="2" stroke-linecap="round" fill="none" opacity="0.6"/>
  <path d="M76 60 Q86 52 96 50" stroke="#ea76cb" stroke-width="2" stroke-linecap="round" fill="none" opacity="0.6"/>
  <!-- 壳纹 -->
  <path d="M52 72 Q64 68 76 72" stroke="#cba6f7" stroke-width="1.5" stroke-linecap="round" fill="none" opacity="0.4"/>
  <path d="M50 80 Q64 76 78 80" stroke="#cba6f7" stroke-width="1.5" stroke-linecap="round" fill="none" opacity="0.4"/>
</svg>
